<?xml version="1.0" encoding="UTF-8" standalone="no"?>
<svg
   viewBox="0 0 108 108"
   version="1.1"
   id="svg11"
   sodipodi:docname="calculator-path-only.svg"
   inkscape:version="1.4 (e7c3feb100, 2024-10-09)"
   width="108"
   height="108"
   inkscape:export-filename="calculator-path-only-plain.svg"
   inkscape:export-xdpi="96"
   inkscape:export-ydpi="96"
   xmlns:inkscape="http://www.inkscape.org/namespaces/inkscape"
   xmlns:sodipodi="http://sodipodi.sourceforge.net/DTD/sodipodi-0.dtd"
   xmlns="http://www.w3.org/2000/svg"
   xmlns:svg="http://www.w3.org/2000/svg">
  <defs
     id="defs11" />
  <sodipodi:namedview
     id="namedview11"
     pagecolor="#ffffff"
     bordercolor="#000000"
     borderopacity="0.25"
     inkscape:showpageshadow="2"
     inkscape:pageopacity="0.0"
     inkscape:pagecheckerboard="0"
     inkscape:deskcolor="#d1d1d1"
     inkscape:zoom="2.8354982"
     inkscape:cx="124.84579"
     inkscape:cy="149.53281"
     inkscape:window-width="1920"
     inkscape:window-height="1008"
     inkscape:window-x="0"
     inkscape:window-y="0"
     inkscape:window-maximized="1"
     inkscape:current-layer="svg11">
    <inkscape:page
       x="0"
       y="0"
       width="108"
       height="108"
       id="page2"
       margin="0"
       bleed="0" />
  </sodipodi:namedview>
  <!-- Hintergrundkreis -->
  <!-- Taschenrechnerkörper -->
  <path
     id="rect1"
     style="fill:#90caf9;stroke-width:0.347182"
     d="m 39,31.5 c -4.155,0 -7.5,2.866306 -7.5,6.427734 V 70.072266 C 31.5,73.633694 34.845,76.5 39,76.5 h 30 c 4.155002,0 7.5,-2.866306 7.5,-6.427734 V 37.927734 C 76.5,34.366306 73.155002,31.5 69,31.5 Z m -0.08203,3.460938 h 9.39453 c 2.191648,0 3.957031,1.765382 3.957031,3.957031 V 48.3125 c 0,2.191648 -1.765383,3.957031 -3.957031,3.957031 h -9.394531 c -2.191649,0 -3.957032,-1.765383 -3.957031,-3.957031 v -9.394531 c 0,-2.191649 1.765382,-3.957032 3.957032,-3.957031 z m 20.769531,0 h 9.394531 c 2.191649,0 3.957031,1.765383 3.957031,3.957031 V 48.3125 c 0,2.191648 -1.765382,3.957031 -3.957031,3.957031 H 59.6875 c -2.191649,0 -3.957031,-1.765383 -3.957031,-3.957031 v -9.394531 c 0,-2.191648 1.765382,-3.957032 3.957032,-3.957031 z M 38.917969,55.730469 H 48.3125 c 2.191648,0 3.957031,1.765382 3.957031,3.957031 v 9.394531 c 0,2.191649 -1.765383,3.957031 -3.957031,3.957031 h -9.394531 c -2.191649,0 -3.957032,-1.765382 -3.957031,-3.957031 V 59.6875 c 0,-2.191649 1.765382,-3.957031 3.957031,-3.957031 z m 20.769531,0 h 9.394531 c 2.191649,0 3.957031,1.765382 3.957031,3.957031 v 9.394531 c 0,2.191649 -1.765382,3.957031 -3.957031,3.957031 H 59.6875 c -2.191649,0 -3.957031,-1.765382 -3.957031,-3.957031 V 59.6875 c 0,-2.191649 1.765382,-3.957031 3.957031,-3.957031 z" />
  <!-- Display -->
  <!-- Term 1+2=3 -->
  <!-- Vier Tasten, nach oben verschoben -->
  <!-- Taste 1: Plus -->
  <g
     transform="matrix(0.49450548,0,0,0.49450548,43.615385,43.615385)"
     id="g4">
    <path
       id="line3"
       style="stroke:#90caf9;stroke-width:4;stroke-linecap:round"
       d="M -8,0 H 8" />
    <path
       id="line4"
       style="stroke:#90caf9;stroke-width:4;stroke-linecap:round"
       d="M 0,-8 V 8" />
  </g>
  <!-- Taste 2: Lineal -->
  <g
     transform="matrix(0.34966817,-0.34966817,0.34966817,0.34966817,64.384615,43.615387)"
     id="g9">
    <path
       id="rect5"
       style="fill:none;stroke:#90caf9;stroke-width:2.5"
       d="m -10,-5 h 20 c 1.108,0 2,0.892 2,2 v 6 c 0,1.108 -0.892,2 -2,2 h -20 c -1.108,0 -2,-0.892 -2,-2 v -6 c 0,-1.108 0.892,-2 2,-2 z" />
    <path
       id="line5"
       style="stroke:#90caf9;stroke-width:2"
       d="m -10,-5 v 4" />
    <path
       id="line6"
       style="stroke:#90caf9;stroke-width:2"
       d="m -5,-5 v 4" />
    <path
       id="line7"
       style="stroke:#90caf9;stroke-width:2"
       d="m 0,-5 v 4" />
    <path
       id="line8"
       style="stroke:#90caf9;stroke-width:2"
       d="m 5,-5 v 4" />
    <path
       id="line9"
       style="stroke:#90caf9;stroke-width:2"
       d="m 10,-5 v 4" />
  </g>
  <!-- Taste 3: Dollar -->
  <path
     d="m 47.469791,66.563034 q 0,1.290219 -0.869651,2.003047 -0.862522,0.705701 -2.559054,0.769857 v 1.247448 H 43.264103 V 69.35732 Q 41.731522,69.30029 40.876128,68.637365 40.020734,67.967304 39.749859,66.591547 L 41.5747,66.256518 q 0.135437,0.805497 0.534621,1.183296 0.406312,0.370669 1.154782,0.441952 v -2.787158 q -0.02138,-0.01426 -0.106924,-0.02852 -0.08554,-0.02139 -0.114052,-0.02139 -1.154783,-0.263749 -1.74643,-0.620163 -0.58452,-0.363541 -0.905292,-0.91242 -0.320773,-0.556006 -0.320773,-1.354375 0,-1.183292 0.812624,-1.831967 0.819753,-0.648675 2.380847,-0.705701 v -0.95519 h 0.776983 v 0.95519 q 0.933805,0.03564 1.553966,0.299389 0.627289,0.256617 1.005088,0.762726 0.384928,0.49898 0.620161,1.432786 l -1.881867,0.278003 Q 45.23151,61.772808 44.917865,61.43778 44.611349,61.095621 44.041086,61.01721 v 2.509158 l 0.07841,0.01426 q 0.206721,0 1.254578,0.342159 1.054987,0.342156 1.575351,1.012216 0.520365,0.66293 0.520365,1.668019 z m -4.205688,-5.574319 q -1.325861,0.0998 -1.325861,1.140525 0,0.313646 0.106925,0.520366 0.114052,0.206719 0.320773,0.342156 0.213848,0.135439 0.898163,0.363544 z m 2.352334,5.602832 q 0,-0.356414 -0.128309,-0.577392 -0.128309,-0.228105 -0.377799,-0.370672 -0.242362,-0.142563 -1.069243,-0.377799 v 2.616082 q 1.575351,-0.106923 1.575351,-1.290219 z"
     id="text9"
     style="font-weight:bold;font-size:42.1741px;font-family:'Liberation Sans';-inkscape-font-specification:'Liberation Sans, Bold';text-anchor:middle;fill:#90caf9;stroke:#90caf9;stroke-width:0.608282"
     aria-label="$" />
  <!-- Taste 4: Gleichheitszeichen -->
  <g
     transform="matrix(0.49450548,0,0,0.49450548,64.384615,64.384615)"
     id="g11">
    <path
       id="line10"
       style="stroke:#90caf9;stroke-width:4;stroke-linecap:round"
       d="M -8,-4 H 8" />
    <path
       id="line11"
       style="stroke:#90caf9;stroke-width:4;stroke-linecap:round"
       d="M -8,4 H 8" />
  </g>
</svg>
